<?xml version="1.0" encoding="utf-8"?>
<!-- Generator: Adobe Illustrator 25.0.0, SVG Export Plug-In . SVG Version: 6.00 Build 0)  -->
<svg version="1.1" id="Layer_1" xmlns="http://www.w3.org/2000/svg" xmlns:xlink="http://www.w3.org/1999/xlink" x="0px" y="0px"
	 viewBox="0 0 78.75 323.96" style="enable-background:new 0 0 78.75 323.96;" xml:space="preserve">
<style type="text/css">
	.st0{display:none;}
	.st1{display:inline;fill:#FFFFFF;}
	.st2{fill:#FFFFFF;}
	.st3{display:inline;fill:#3B6D91;}
	.st4{display:inline;}
</style>
<g class="st0">
	<path class="st1" d="M30.25,324.72c-18.62,0-29.58-12.58-29.58-29.75c0-14.11,7.57-25.42,20.32-25.42c1.27,0,2.64,0.08,3.31,0.17
		v12.16c-0.94-0.08-1.79-0.08-2.38-0.08c-6.63,0-10.29,6.04-10.29,12.67c0,9.52,6.97,16.07,18.7,16.07
		c11.14,0,17.77-6.89,17.77-15.56c0-6.29-3.83-12.58-10.2-12.58h-0.85v14.45h-7.91v-27.71h28.31v10.8
		c-2.04-0.08-6.04-0.25-9.61-0.25v0.08c6.55,1.61,10.46,8.08,10.46,17.17C58.3,312.91,47.84,324.72,30.25,324.72z"/>
	<path class="st1" d="M38.92,220.68v29.84c6.89-0.59,9.86-4.08,9.86-9.86c0-5.02-1.79-8.25-5.87-8.59v-11.39
		c9.61,0.25,15.22,8.25,15.22,20.23c0,13.94-7.91,22.61-21.25,22.61c-13.86,0-22.1-8.67-22.1-22.87c0-11.73,6.72-19.98,20.49-19.98
		H38.92z M31.35,232.07c-4.76,0-7.23,3.23-7.23,8.59c0,5.44,2.38,8.5,7.91,9.52v-18.11H31.35z"/>
	<path class="st1" d="M43,211.42H25.49v6.21H15.46v-5.02c0-1.96-1.11-2.64-3.66-2.89l-5.87-0.59V198.5h9.52v-13.43h10.03v13.43
		h16.83c4.34,0,5.7-2.04,5.7-7.14c0-1.79-0.26-4.42-0.6-5.87h9.78c0.25,1.11,0.94,4.68,0.94,8.16
		C58.13,206.74,52.35,211.42,43,211.42z"/>
	<path class="st1" d="M12.48,145.88v15.9H1.52v-45.65h10.97v15.81h44.97v13.94H12.48z"/>
	<path class="st1" d="M36.54,118.86c-13.69,0-21.76-9.01-21.76-22.87s8.08-22.87,21.76-22.87c13.6,0,21.59,9.01,21.59,22.87
		S50.14,118.86,36.54,118.86z M36.54,86.04c-7.48,0-11.9,3.66-11.9,9.95c0,6.29,4.42,9.95,11.9,9.95c7.4,0,11.73-3.66,11.73-9.95
		C48.27,89.7,43.93,86.04,36.54,86.04z"/>
	<path class="st1" d="M1.52,47.29V33.35h27.8v-0.17L1.52,9.03V-7.63l25.33,22.95l30.6-24.57V8.86L35.6,24.85l8.93,8.5h12.92v13.94
		H1.52z"/>
	<path class="st1" d="M15.46-13.15v-12.92l11.14,0.51v-0.17c-7.99-2.12-11.82-7.06-11.82-16.58c0-10.12,5.53-16.66,16.41-16.66
		h26.27v12.92H34.07c-5.95,0-8.59,3.4-8.59,9.1c0,6.8,4,10.88,11.99,10.88h19.98v12.92H15.46z"/>
	<path class="st1" d="M36.54-64.23c-13.69,0-21.76-9.01-21.76-22.87s8.08-22.87,21.76-22.87c13.6,0,21.59,9.01,21.59,22.87
		S50.14-64.23,36.54-64.23z M36.54-97.04c-7.48,0-11.9,3.66-11.9,9.95c0,6.29,4.42,9.95,11.9,9.95c7.4,0,11.73-3.66,11.73-9.95
		C48.27-93.39,43.93-97.04,36.54-97.04z"/>
	<path class="st1" d="M15.46-112.34v-13.6l29.5-7.06v-0.17l-29.5-8.08v-12.84l29.5-7.82v-0.08l-29.5-7.4v-12.07l41.99,11.73v15.9
		l-27.63,6.89v0.25l27.63,7.31v15.3L15.46-112.34z"/>
	<path class="st1" d="M1.52-206.26v-21.85l37.23-11.99v-0.17l-37.23-11.9v-21.17h55.93v13.94l-43.95-0.34v0.17l43.95,14.11v11.99
		l-43.95,14.2v0.17l43.95-0.25v13.09H1.52z"/>
	<path class="st1" d="M38.92-322.46v29.84c6.89-0.59,9.86-4.08,9.86-9.86c0-5.02-1.79-8.25-5.87-8.59v-11.39
		c9.61,0.25,15.22,8.25,15.22,20.23c0,13.94-7.91,22.61-21.25,22.61c-13.86,0-22.1-8.67-22.1-22.87c0-11.73,6.72-19.98,20.49-19.98
		H38.92z M31.35-311.07c-4.76,0-7.23,3.23-7.23,8.59c0,5.44,2.38,8.5,7.91,9.52v-18.11H31.35z"/>
</g>
<g>
	<path class="st2" d="M29.04,324.32c-18.19,0-28.9-12.24-28.9-29.5c0-15.3,8.67-25.84,21.51-25.84c1.27,0,2.81,0.08,3.57,0.17v12.16
		c-0.94-0.08-1.79-0.08-2.21-0.08c-7.57,0-11.9,5.36-11.9,12.92c0,9.18,6.89,15.73,17.94,15.73c11.14,0,17.77-6.71,17.77-15.73
		c0-8.16-4.42-13.09-11.48-13.09c-0.34,0-0.85,0-1.79,0.08V268.9c1.1-0.08,2.04-0.08,2.72-0.08c12.84,0,21.51,10.63,21.51,26.01
		C57.78,312.08,47.07,324.32,29.04,324.32z"/>
	<path class="st2" d="M36.02,263.8c-13.69,0-21.76-9.01-21.76-22.87c0-13.86,8.08-22.87,21.76-22.87c13.6,0,21.59,9.01,21.59,22.87
		C57.61,254.79,49.62,263.8,36.02,263.8z M36.02,230.99c-7.48,0-11.9,3.66-11.9,9.95c0,6.29,4.42,9.95,11.9,9.95
		c7.4,0,11.73-3.66,11.73-9.95C47.75,234.64,43.41,230.99,36.02,230.99z"/>
	<path class="st2" d="M14.93,212.38v-12.92l11.14,0.51v-0.17c-7.99-2.12-11.82-7.06-11.82-16.58c0-10.12,5.53-16.66,16.41-16.66
		h26.27v12.92H33.55c-5.95,0-8.59,3.4-8.59,9.1c0,6.8,4,10.88,11.99,10.88h19.98v12.92H14.93z"/>
	<path class="st2" d="M42.48,156.96H24.96v6.21H14.93v-5.02c0-1.96-1.11-2.64-3.66-2.89l-5.87-0.59v-10.63h9.52V130.6h10.03v13.43
		H41.8c4.34,0,5.7-2.04,5.7-7.14c0-1.79-0.26-4.42-0.6-5.87h9.78c0.25,1.11,0.94,4.68,0.94,8.16
		C57.61,152.28,51.83,156.96,42.48,156.96z"/>
	<path class="st2" d="M44.86,126.87c-6.89,0-11.9-4.93-11.9-16.07V97.12h-2.81c-5.1,0-7.14,2.89-7.14,8.84
		c0,4.85,2.04,7.65,5.44,7.65c0.25,0,0.94,0,1.79-0.08v11.9c-0.68,0.08-1.62,0.17-2.47,0.17c-8.5,0-13.52-7.48-13.52-20.23
		c0-13.35,5.95-21.17,17.17-21.17h25.5v12.92c-2.12-0.25-5.95-0.59-8.5-0.59v0.08c5.95,1.28,9.18,6.04,9.18,13.69
		C57.61,120.07,53.36,126.87,44.86,126.87z M40.78,97.12h-0.85v12.5c0,3.49,1.62,5.61,4,5.61c3.23,0,4.93-2.8,4.93-7.48
		C48.85,101.03,45.88,97.12,40.78,97.12z"/>
	<path class="st2" d="M36.02,78.93c-13.69,0-21.76-8.93-21.76-21.85c0-12.33,6.89-20.4,18.53-20.4v11.39
		c-5.44,0.08-8.67,3.31-8.67,8.58c0,6.04,4.17,9.35,11.82,9.35c7.4,0,11.82-3.4,11.82-9.1c0-5.53-3.15-8.84-8.5-8.92V36.6
		c12.07,0,18.36,8.59,18.36,21C57.61,70.17,49.62,78.93,36.02,78.93z"/>
	<path class="st2" d="M42.48,27.33H24.96v6.21H14.93v-5.02c0-1.96-1.11-2.64-3.66-2.89l-5.87-0.59V14.41h9.52V0.98h10.03v13.43H41.8
		c4.34,0,5.7-2.04,5.7-7.14c0-1.79-0.26-4.42-0.6-5.87h9.78c0.25,1.11,0.94,4.68,0.94,8.16C57.61,22.66,51.83,27.33,42.48,27.33z"/>
</g>
<g class="st0">
	<path class="st3" d="M4.93,323.97v-21.85l37.23-11.99v-0.17l-37.23-11.9v-21.17h55.93v13.94l-43.95-0.34v0.17l43.95,14.11v11.99
		l-43.95,14.2v0.17l43.95-0.26v13.09H4.93z"/>
	<path class="st3" d="M77.61,245.09h-9.61c0.34-1.28,0.68-3.23,0.68-5.36c0-4.25-2.04-6.21-7.82-8.33v2.81l-41.99,17.43v-14.79
		l28.9-10.8v-0.17l-28.9-9.78v-12.41l43.01,15.22c12.07,4.25,16.83,9.44,16.83,18.11C78.72,241.26,78.04,243.98,77.61,245.09z"/>
	<path class="st3" d="M4.93,178.87v-24.06c0-14.28,6.72-22.87,20.23-22.87c12.41,0,19.72,6.97,19.72,21.59v11.39h15.98v13.94H4.93z
		 M35.53,154.13c0-5.87-3.15-9.1-9.69-9.1c-6.38,0-9.95,3.57-9.95,10.2v9.69h19.64V154.13z"/>
	<path class="st3" d="M39.95,127.53c-13.69,0-21.76-9.01-21.76-22.87S26.27,81.8,39.95,81.8c13.6,0,21.59,9.01,21.59,22.87
		S53.55,127.53,39.95,127.53z M39.95,94.72c-7.48,0-11.9,3.66-11.9,9.95c0,6.29,4.42,9.95,11.9,9.95c7.4,0,11.73-3.66,11.73-9.95
		C51.68,98.37,47.35,94.72,39.95,94.72z"/>
	<path class="st3" d="M18.87,76.11V63.19l11.99,0.51v-0.17c-7.99-1.79-12.67-6.29-12.67-14.54c0-8.58,5.53-13.6,16.41-13.6
		c2.38,0,6.12,0.25,8.33,0.42v11.73c-2.04-0.17-4.17-0.25-5.44-0.25c-6.12,0-8.59,2.47-8.59,6.55c0,5.53,4.51,9.35,13.86,9.35h18.11
		v12.92H18.87z"/>
	<path class="st3" d="M46.41,26.3H28.9v6.21H18.87v-5.02c0-1.96-1.11-2.64-3.66-2.89L9.35,24V13.38h9.52V-0.05H28.9v13.43h16.83
		c4.33,0,5.7-2.04,5.7-7.14c0-1.79-0.25-4.42-0.6-5.87h9.78c0.25,1.11,0.93,4.68,0.93,8.16C61.55,21.62,55.76,26.3,46.41,26.3z"/>
	<path class="st3" d="M28.9-9.49v6.21H18.87v-6.21h-4.08c-9.69,0-14.62-7.06-14.62-16.58c0-4.25,0.94-7.91,1.36-9.01h9.52
		c-0.34,1.11-1.02,3.4-1.02,6.38c0,4.25,1.96,6.29,5.7,6.29h3.15v-13.35H28.9v13.35h31.96v12.92H28.9z"/>
	<path class="st3" d="M39.95-37.19c-13.69,0-21.76-9.01-21.76-22.87s8.08-22.87,21.76-22.87c13.6,0,21.59,9.01,21.59,22.87
		S53.55-37.19,39.95-37.19z M39.95-70.01c-7.48,0-11.9,3.66-11.9,9.95c0,6.29,4.42,9.95,11.9,9.95c7.4,0,11.73-3.66,11.73-9.95
		C51.68-66.35,47.35-70.01,39.95-70.01z"/>
	<path class="st3" d="M1.96-88.79v-12.92h58.91v12.92H1.96z"/>
	<path class="st3" d="M4.17-108.68v-12.92h10.29v12.92H4.17z M18.87-108.68v-12.92h41.99v12.92H18.87z"/>
	<path class="st3" d="M39.95-127.63c-13.69,0-21.76-9.01-21.76-22.87s8.08-22.87,21.76-22.87c13.6,0,21.59,9.01,21.59,22.87
		S53.55-127.63,39.95-127.63z M39.95-160.45c-7.48,0-11.9,3.66-11.9,9.95s4.42,9.95,11.9,9.95c7.4,0,11.73-3.66,11.73-9.95
		S47.35-160.45,39.95-160.45z"/>
</g>
<g class="st0">
	<path class="st4" d="M0.31,323.95v-26.06c0-14.77,6.11-22.75,16.64-22.75c7.13,0,11.63,3.06,13.16,8.32h0.17
		c1.27-5.52,5.69-7.98,11.97-7.98h13.92v13.92h-13.5c-5.09,0-7.3,1.87-7.3,7.13v13.5h20.79v13.92H0.31z M26.96,297.29
		c0-5.86-2.63-8.83-7.81-8.83c-4.92,0-7.89,3.05-7.89,9.51v12.05h15.7V297.29z"/>
	<path class="st4" d="M37.66,226.51v29.79c6.88-0.59,9.85-4.07,9.85-9.85c0-5.01-1.78-8.23-5.86-8.57v-11.37
		c9.59,0.25,15.19,8.23,15.19,20.2c0,13.92-7.89,22.58-21.22,22.58c-13.83,0-22.07-8.66-22.07-22.83c0-11.71,6.71-19.95,20.46-19.95
		H37.66z M30.1,237.88c-4.75,0-7.21,3.23-7.21,8.57c0,5.43,2.38,8.49,7.89,9.51v-18.08H30.1z"/>
	<path class="st4" d="M35.28,221.59c-13.67,0-21.73-8.91-21.73-21.81c0-12.31,6.88-20.37,18.5-20.37v11.37
		c-5.43,0.08-8.66,3.31-8.66,8.57c0,6.03,4.16,9.34,11.8,9.34c7.38,0,11.8-3.4,11.8-9.08c0-5.52-3.14-8.83-8.49-8.91v-11.38
		c12.05,0,18.33,8.57,18.33,20.97C56.84,212.85,48.86,221.59,35.28,221.59z"/>
	<path class="st4" d="M37.66,131.63v29.79c6.88-0.59,9.85-4.07,9.85-9.85c0-5.01-1.78-8.23-5.86-8.57v-11.37
		c9.59,0.25,15.19,8.23,15.19,20.2c0,13.92-7.89,22.58-21.22,22.58c-13.83,0-22.07-8.66-22.07-22.83c0-11.71,6.71-19.95,20.46-19.95
		H37.66z M30.1,143c-4.75,0-7.21,3.23-7.21,8.57c0,5.43,2.38,8.49,7.89,9.51V143L30.1,143L30.1,143z"/>
	<path class="st4" d="M14.23,125.94v-12.9l11.12,0.51v-0.17c-7.98-2.12-11.8-7.04-11.8-16.55c0-10.1,5.52-16.64,16.38-16.64h26.23
		v12.9H32.82c-5.94,0-8.57,3.4-8.57,9.08c0,6.79,3.99,10.86,11.97,10.86h19.95v12.9H14.23V125.94z"/>
	<path class="st4" d="M41.73,70.61H24.25v6.2H14.23V71.8c0-1.95-1.1-2.63-3.65-2.89l-5.86-0.59V57.71h9.51V44.3h10.02v13.41h16.81
		c4.33,0,5.69-2.04,5.69-7.13c0-1.78-0.25-4.41-0.59-5.86h9.76c0.25,1.1,0.93,4.67,0.93,8.15C56.84,65.94,51.07,70.61,41.73,70.61z"
		/>
	<path class="st4" d="M0.31,18.75V-5.27c0-14.26,6.71-22.83,20.2-22.83c12.39,0,19.69,6.96,19.69,21.56V4.83h15.96v13.92L0.31,18.75
		L0.31,18.75z M30.87-5.95c0-5.86-3.14-9.08-9.68-9.08c-6.37,0-9.93,3.56-9.93,10.19v9.68h19.61V-5.95z"/>
	<path class="st4" d="M14.23-33.27v-12.9l11.97,0.51v-0.17c-7.98-1.78-12.65-6.28-12.65-14.51c0-8.57,5.52-13.58,16.38-13.58
		c2.38,0,6.11,0.25,8.32,0.42v11.71c-2.04-0.17-4.16-0.25-5.43-0.25c-6.11,0-8.57,2.46-8.57,6.54c0,5.52,4.5,9.34,13.83,9.34h18.08
		v12.9L14.23-33.27L14.23-33.27z"/>
	<path class="st4" d="M35.28-78.68c-13.67,0-21.73-9-21.73-22.83c0-13.84,8.06-22.83,21.73-22.83c13.58,0,21.56,9,21.56,22.83
		C56.84-87.67,48.86-78.68,35.28-78.68z M35.28-111.44c-7.47,0-11.88,3.65-11.88,9.93c0,6.28,4.41,9.93,11.88,9.93
		c7.38,0,11.71-3.65,11.71-9.93C46.99-107.79,42.66-111.44,35.28-111.44z"/>
	<path class="st4" d="M-0.45-130.28v-12.99H9.82v12.99H-0.45z M73.13-118.14h-9.68c0.34-1.87,0.51-3.4,0.51-5.43
		c0-4.67-2.72-6.71-7.21-6.71H14.23v-12.9h43.2c10.44,0,16.55,5.86,16.55,15.7C73.98-122.04,73.39-119.16,73.13-118.14z"/>
	<path class="st4" d="M37.66-192.06v29.79c6.88-0.59,9.85-4.07,9.85-9.85c0-5.01-1.78-8.23-5.86-8.57v-11.37
		c9.59,0.25,15.19,8.23,15.19,20.2c0,13.92-7.89,22.58-21.22,22.58c-13.83,0-22.07-8.66-22.07-22.83c0-11.71,6.71-19.95,20.46-19.95
		C34.01-192.06,37.66-192.06,37.66-192.06z M30.1-180.69c-4.75,0-7.21,3.23-7.21,8.57c0,5.43,2.38,8.49,7.89,9.51v-18.08H30.1z"/>
	<path class="st4" d="M35.28-196.98c-13.67,0-21.73-8.91-21.73-21.81c0-12.31,6.88-20.37,18.5-20.37v11.37
		c-5.43,0.08-8.66,3.31-8.66,8.57c0,6.03,4.16,9.34,11.8,9.34c7.38,0,11.8-3.4,11.8-9.08c0-5.52-3.14-8.83-8.49-8.91v-11.38
		c12.05,0,18.33,8.57,18.33,20.97C56.84-205.73,48.86-196.98,35.28-196.98z"/>
	<path class="st4" d="M41.73-248.5H24.25v6.2H14.23v-5.01c0-1.95-1.1-2.63-3.65-2.89l-5.86-0.59v-10.61h9.51v-13.41h10.02v13.41
		h16.81c4.33,0,5.69-2.04,5.69-7.13c0-1.78-0.25-4.41-0.59-5.86h9.76c0.25,1.1,0.93,4.67,0.93,8.15
		C56.84-253.17,51.07-248.5,41.73-248.5z"/>
</g>
</svg>
