<?xml version="1.0" encoding="utf-8"?>
<!-- Generator: Adobe Illustrator 25.0.0, SVG Export Plug-In . SVG Version: 6.00 Build 0)  -->
<svg version="1.1" id="Layer_1" xmlns="http://www.w3.org/2000/svg" xmlns:xlink="http://www.w3.org/1999/xlink" x="0px" y="0px"
	 viewBox="0 0 78.75 647.03" style="enable-background:new 0 0 78.75 647.03;" xml:space="preserve">
<style type="text/css">
	.st0{fill:#FFFFFF;}
	.st1{display:none;}
	.st2{display:inline;fill:#FFFFFF;}
	.st3{display:inline;fill:#3B6D91;}
	.st4{display:inline;}
</style>
<g>
	<path class="st0" d="M30.25,647.8c-18.62,0-29.58-12.58-29.58-29.75c0-14.11,7.57-25.42,20.32-25.42c1.27,0,2.64,0.08,3.31,0.17
		v12.16c-0.94-0.08-1.79-0.08-2.38-0.08c-6.63,0-10.29,6.04-10.29,12.67c0,9.52,6.97,16.07,18.7,16.07
		c11.14,0,17.77-6.89,17.77-15.56c0-6.29-3.83-12.58-10.2-12.58h-0.85v14.45h-7.91v-27.71h28.31V603c-2.04-0.08-6.04-0.25-9.61-0.25
		v0.08c6.55,1.61,10.46,8.08,10.46,17.17C58.3,635.98,47.84,647.8,30.25,647.8z"/>
	<path class="st0" d="M38.92,543.76v29.84c6.89-0.59,9.86-4.08,9.86-9.86c0-5.02-1.79-8.25-5.87-8.59v-11.39
		c9.61,0.25,15.22,8.25,15.22,20.23c0,13.94-7.91,22.61-21.25,22.61c-13.86,0-22.1-8.67-22.1-22.87c0-11.73,6.72-19.98,20.49-19.98
		H38.92z M31.35,555.15c-4.76,0-7.23,3.23-7.23,8.59c0,5.44,2.38,8.5,7.91,9.52v-18.11H31.35z"/>
	<path class="st0" d="M43,534.5H25.49v6.21H15.46v-5.02c0-1.96-1.11-2.64-3.66-2.89l-5.87-0.59v-10.63h9.52v-13.43h10.03v13.43
		h16.83c4.34,0,5.7-2.04,5.7-7.14c0-1.79-0.26-4.42-0.6-5.87h9.78c0.25,1.11,0.94,4.68,0.94,8.16C58.13,529.82,52.35,534.5,43,534.5
		z"/>
	<path class="st0" d="M12.48,468.96v15.9H1.52v-45.65h10.97v15.81h44.97v13.94H12.48z"/>
	<path class="st0" d="M36.54,441.93c-13.69,0-21.76-9.01-21.76-22.87s8.08-22.87,21.76-22.87c13.6,0,21.59,9.01,21.59,22.87
		S50.14,441.93,36.54,441.93z M36.54,409.12c-7.48,0-11.9,3.66-11.9,9.95c0,6.29,4.42,9.95,11.9,9.95c7.4,0,11.73-3.66,11.73-9.95
		C48.27,412.78,43.93,409.12,36.54,409.12z"/>
	<path class="st0" d="M1.52,370.36v-13.94h27.8v-0.17l-27.8-24.14v-16.66l25.33,22.95l30.6-24.57v18.11L35.6,347.92l8.93,8.5h12.92
		v13.94H1.52z"/>
	<path class="st0" d="M15.46,309.93v-12.92l11.14,0.51v-0.17c-7.99-2.12-11.82-7.06-11.82-16.58c0-10.12,5.53-16.66,16.41-16.66
		h26.27v12.92H34.07c-5.95,0-8.59,3.4-8.59,9.1c0,6.8,4,10.88,11.99,10.88h19.98v12.92H15.46z"/>
	<path class="st0" d="M36.54,258.85c-13.69,0-21.76-9.01-21.76-22.87s8.08-22.87,21.76-22.87c13.6,0,21.59,9.01,21.59,22.87
		S50.14,258.85,36.54,258.85z M36.54,226.03c-7.48,0-11.9,3.66-11.9,9.95c0,6.29,4.42,9.95,11.9,9.95c7.4,0,11.73-3.66,11.73-9.95
		C48.27,229.69,43.93,226.03,36.54,226.03z"/>
	<path class="st0" d="M15.46,210.74v-13.6l29.5-7.06v-0.17l-29.5-8.08V169l29.5-7.82v-0.08l-29.5-7.4v-12.07l41.99,11.73v15.9
		l-27.63,6.89v0.25l27.63,7.31v15.3L15.46,210.74z"/>
	<path class="st0" d="M1.52,116.81V94.97l37.23-11.99v-0.17L1.52,70.91V49.74h55.93v13.94L13.5,63.34v0.17l43.95,14.11v11.99
		l-43.95,14.2v0.17l43.95-0.25v13.09H1.52z"/>
	<path class="st0" d="M38.92,0.61v29.84c6.89-0.59,9.86-4.08,9.86-9.86c0-5.02-1.79-8.25-5.87-8.59V0.61
		c9.61,0.25,15.22,8.25,15.22,20.23c0,13.94-7.91,22.61-21.25,22.61c-13.86,0-22.1-8.67-22.1-22.87c0-11.73,6.72-19.98,20.49-19.98
		H38.92z M31.35,12.01c-4.76,0-7.23,3.23-7.23,8.59c0,5.44,2.38,8.5,7.91,9.52V12.01H31.35z"/>
</g>
<g class="st1">
	<path class="st2" d="M29.04,647.4c-18.19,0-28.9-12.24-28.9-29.5c0-15.3,8.67-25.84,21.51-25.84c1.27,0,2.81,0.08,3.57,0.17v12.16
		c-0.94-0.08-1.79-0.08-2.21-0.08c-7.57,0-11.9,5.36-11.9,12.92c0,9.18,6.89,15.73,17.94,15.73c11.14,0,17.77-6.71,17.77-15.73
		c0-8.16-4.42-13.09-11.48-13.09c-0.34,0-0.85,0-1.79,0.08v-12.24c1.1-0.08,2.04-0.08,2.72-0.08c12.84,0,21.51,10.63,21.51,26.01
		C57.78,635.16,47.07,647.4,29.04,647.4z"/>
	<path class="st2" d="M36.02,586.88c-13.69,0-21.76-9.01-21.76-22.87c0-13.86,8.08-22.87,21.76-22.87c13.6,0,21.59,9.01,21.59,22.87
		C57.61,577.87,49.62,586.88,36.02,586.88z M36.02,554.06c-7.48,0-11.9,3.66-11.9,9.95c0,6.29,4.42,9.95,11.9,9.95
		c7.4,0,11.73-3.66,11.73-9.95C47.75,557.72,43.41,554.06,36.02,554.06z"/>
	<path class="st2" d="M14.93,535.45v-12.92l11.14,0.51v-0.17c-7.99-2.12-11.82-7.06-11.82-16.58c0-10.12,5.53-16.66,16.41-16.66
		h26.27v12.92H33.55c-5.95,0-8.59,3.4-8.59,9.1c0,6.8,4,10.88,11.99,10.88h19.98v12.92H14.93z"/>
	<path class="st2" d="M42.48,480.03H24.96v6.21H14.93v-5.02c0-1.96-1.11-2.64-3.66-2.89l-5.87-0.59v-10.63h9.52v-13.43h10.03v13.43
		H41.8c4.34,0,5.7-2.04,5.7-7.14c0-1.79-0.26-4.42-0.6-5.87h9.78c0.25,1.11,0.94,4.68,0.94,8.16
		C57.61,475.36,51.83,480.03,42.48,480.03z"/>
	<path class="st2" d="M44.86,449.95c-6.89,0-11.9-4.93-11.9-16.07v-13.69h-2.81c-5.1,0-7.14,2.89-7.14,8.84
		c0,4.85,2.04,7.65,5.44,7.65c0.25,0,0.94,0,1.79-0.08v11.9c-0.68,0.08-1.62,0.17-2.47,0.17c-8.5,0-13.52-7.48-13.52-20.23
		c0-13.35,5.95-21.17,17.17-21.17h25.5v12.92c-2.12-0.25-5.95-0.59-8.5-0.59v0.08c5.95,1.28,9.18,6.04,9.18,13.69
		C57.61,443.14,53.36,449.95,44.86,449.95z M40.78,420.19h-0.85v12.5c0,3.49,1.62,5.61,4,5.61c3.23,0,4.93-2.8,4.93-7.48
		C48.85,424.1,45.88,420.19,40.78,420.19z"/>
	<path class="st2" d="M36.02,402.01c-13.69,0-21.76-8.93-21.76-21.85c0-12.33,6.89-20.4,18.53-20.4v11.39
		c-5.44,0.08-8.67,3.31-8.67,8.58c0,6.04,4.17,9.35,11.82,9.35c7.4,0,11.82-3.4,11.82-9.1c0-5.53-3.15-8.84-8.5-8.92v-11.39
		c12.07,0,18.36,8.59,18.36,21C57.61,393.25,49.62,402.01,36.02,402.01z"/>
	<path class="st2" d="M42.48,350.41H24.96v6.21H14.93v-5.02c0-1.96-1.11-2.64-3.66-2.89l-5.87-0.59v-10.63h9.52v-13.43h10.03v13.43
		H41.8c4.34,0,5.7-2.04,5.7-7.14c0-1.79-0.26-4.42-0.6-5.87h9.78c0.25,1.11,0.94,4.68,0.94,8.16
		C57.61,345.74,51.83,350.41,42.48,350.41z"/>
</g>
<g class="st1">
	<path class="st3" d="M4.93,647.04v-21.85l37.23-11.99v-0.17l-37.23-11.9v-21.17h55.93v13.94l-43.95-0.34v0.17l43.95,14.11v11.99
		l-43.95,14.2v0.17l43.95-0.26v13.09H4.93z"/>
	<path class="st3" d="M77.61,568.16h-9.61c0.34-1.28,0.68-3.23,0.68-5.36c0-4.25-2.04-6.21-7.82-8.33v2.81l-41.99,17.43v-14.79
		l28.9-10.8v-0.17l-28.9-9.78v-12.41l43.01,15.22c12.07,4.25,16.83,9.44,16.83,18.11C78.72,564.34,78.04,567.06,77.61,568.16z"/>
	<path class="st3" d="M4.93,501.95v-24.06c0-14.28,6.72-22.87,20.23-22.87c12.41,0,19.72,6.97,19.72,21.59v11.39h15.98v13.94H4.93z
		 M35.53,477.21c0-5.87-3.15-9.1-9.69-9.1c-6.38,0-9.95,3.57-9.95,10.2v9.69h19.64V477.21z"/>
	<path class="st3" d="M39.95,450.61c-13.69,0-21.76-9.01-21.76-22.87s8.08-22.87,21.76-22.87c13.6,0,21.59,9.01,21.59,22.87
		S53.55,450.61,39.95,450.61z M39.95,417.8c-7.48,0-11.9,3.66-11.9,9.95c0,6.29,4.42,9.95,11.9,9.95c7.4,0,11.73-3.66,11.73-9.95
		C51.68,421.45,47.35,417.8,39.95,417.8z"/>
	<path class="st3" d="M18.87,399.18v-12.92l11.99,0.51v-0.17c-7.99-1.79-12.67-6.29-12.67-14.54c0-8.58,5.53-13.6,16.41-13.6
		c2.38,0,6.12,0.25,8.33,0.42v11.73c-2.04-0.17-4.17-0.25-5.44-0.25c-6.12,0-8.59,2.47-8.59,6.55c0,5.53,4.51,9.35,13.86,9.35h18.11
		v12.92H18.87z"/>
	<path class="st3" d="M46.41,349.37H28.9v6.21H18.87v-5.02c0-1.96-1.11-2.64-3.66-2.89l-5.87-0.59v-10.63h9.52v-13.43H28.9v13.43
		h16.83c4.33,0,5.7-2.04,5.7-7.14c0-1.79-0.25-4.42-0.6-5.87h9.78c0.25,1.11,0.93,4.68,0.93,8.16
		C61.55,344.7,55.76,349.37,46.41,349.37z"/>
	<path class="st3" d="M28.9,313.59v6.21H18.87v-6.21h-4.08c-9.69,0-14.62-7.06-14.62-16.58c0-4.25,0.94-7.91,1.36-9.01h9.52
		c-0.34,1.11-1.02,3.4-1.02,6.38c0,4.25,1.96,6.29,5.7,6.29h3.15v-13.35H28.9v13.35h31.96v12.92H28.9z"/>
	<path class="st3" d="M39.95,285.88c-13.69,0-21.76-9.01-21.76-22.87s8.08-22.87,21.76-22.87c13.6,0,21.59,9.01,21.59,22.87
		S53.55,285.88,39.95,285.88z M39.95,253.07c-7.48,0-11.9,3.66-11.9,9.95c0,6.29,4.42,9.95,11.9,9.95c7.4,0,11.73-3.66,11.73-9.95
		C51.68,256.72,47.35,253.07,39.95,253.07z"/>
	<path class="st3" d="M1.96,234.29v-12.92h58.91v12.92H1.96z"/>
	<path class="st3" d="M4.17,214.4v-12.92h10.29v12.92H4.17z M18.87,214.4v-12.92h41.99v12.92H18.87z"/>
	<path class="st3" d="M39.95,195.44c-13.69,0-21.76-9.01-21.76-22.87s8.08-22.87,21.76-22.87c13.6,0,21.59,9.01,21.59,22.87
		S53.55,195.44,39.95,195.44z M39.95,162.63c-7.48,0-11.9,3.66-11.9,9.95s4.42,9.95,11.9,9.95c7.4,0,11.73-3.66,11.73-9.95
		S47.35,162.63,39.95,162.63z"/>
</g>
<g class="st1">
	<path class="st4" d="M0.31,647.02v-26.06c0-14.77,6.11-22.75,16.64-22.75c7.13,0,11.63,3.06,13.16,8.32h0.17
		c1.27-5.52,5.69-7.98,11.97-7.98h13.92v13.92h-13.5c-5.09,0-7.3,1.87-7.3,7.13v13.5h20.79v13.92H0.31z M26.96,620.36
		c0-5.86-2.63-8.83-7.81-8.83c-4.92,0-7.89,3.05-7.89,9.51v12.05h15.7V620.36z"/>
	<path class="st4" d="M37.66,549.58v29.79c6.88-0.59,9.85-4.07,9.85-9.85c0-5.01-1.78-8.23-5.86-8.57v-11.37
		c9.59,0.25,15.19,8.23,15.19,20.2c0,13.92-7.89,22.58-21.22,22.58c-13.83,0-22.07-8.66-22.07-22.83c0-11.71,6.71-19.95,20.46-19.95
		H37.66z M30.1,560.95c-4.75,0-7.21,3.23-7.21,8.57c0,5.43,2.38,8.49,7.89,9.51v-18.08H30.1z"/>
	<path class="st4" d="M35.28,544.66c-13.67,0-21.73-8.91-21.73-21.81c0-12.31,6.88-20.37,18.5-20.37v11.37
		c-5.43,0.08-8.66,3.31-8.66,8.57c0,6.03,4.16,9.34,11.8,9.34c7.38,0,11.8-3.4,11.8-9.08c0-5.52-3.14-8.83-8.49-8.91v-11.38
		c12.05,0,18.33,8.57,18.33,20.97C56.84,535.92,48.86,544.66,35.28,544.66z"/>
	<path class="st4" d="M37.66,454.7v29.79c6.88-0.59,9.85-4.07,9.85-9.85c0-5.01-1.78-8.23-5.86-8.57V454.7
		c9.59,0.25,15.19,8.23,15.19,20.2c0,13.92-7.89,22.58-21.22,22.58c-13.83,0-22.07-8.66-22.07-22.83c0-11.71,6.71-19.95,20.46-19.95
		H37.66z M30.1,466.07c-4.75,0-7.21,3.23-7.21,8.57c0,5.43,2.38,8.49,7.89,9.51v-18.08L30.1,466.07L30.1,466.07z"/>
	<path class="st4" d="M14.23,449.01v-12.9l11.12,0.51v-0.17c-7.98-2.12-11.8-7.04-11.8-16.55c0-10.1,5.52-16.64,16.38-16.64h26.23
		v12.9H32.82c-5.94,0-8.57,3.4-8.57,9.08c0,6.79,3.99,10.86,11.97,10.86h19.95V449H14.23V449.01z"/>
	<path class="st4" d="M41.73,393.68H24.25v6.2H14.23v-5.01c0-1.95-1.1-2.63-3.65-2.89l-5.86-0.59v-10.61h9.51v-13.41h10.02v13.41
		h16.81c4.33,0,5.69-2.04,5.69-7.13c0-1.78-0.25-4.41-0.59-5.86h9.76c0.25,1.1,0.93,4.67,0.93,8.15
		C56.84,389.01,51.07,393.68,41.73,393.68z"/>
	<path class="st4" d="M0.31,341.82V317.8c0-14.26,6.71-22.83,20.2-22.83c12.39,0,19.69,6.96,19.69,21.56v11.37h15.96v13.92
		L0.31,341.82L0.31,341.82z M30.87,317.12c0-5.86-3.14-9.08-9.68-9.08c-6.37,0-9.93,3.56-9.93,10.19v9.68h19.61V317.12z"/>
	<path class="st4" d="M14.23,289.8v-12.9l11.97,0.51v-0.17c-7.98-1.78-12.65-6.28-12.65-14.51c0-8.57,5.52-13.58,16.38-13.58
		c2.38,0,6.11,0.25,8.32,0.42v11.71c-2.04-0.17-4.16-0.25-5.43-0.25c-6.11,0-8.57,2.46-8.57,6.54c0,5.52,4.5,9.34,13.83,9.34h18.08
		v12.9H14.23V289.8z"/>
	<path class="st4" d="M35.28,244.39c-13.67,0-21.73-9-21.73-22.83c0-13.84,8.06-22.83,21.73-22.83c13.58,0,21.56,9,21.56,22.83
		C56.84,235.4,48.86,244.39,35.28,244.39z M35.28,211.63c-7.47,0-11.88,3.65-11.88,9.93c0,6.28,4.41,9.93,11.88,9.93
		c7.38,0,11.71-3.65,11.71-9.93C46.99,215.28,42.66,211.63,35.28,211.63z"/>
	<path class="st4" d="M-0.45,192.79V179.8H9.82v12.99H-0.45z M73.13,204.93h-9.68c0.34-1.87,0.51-3.4,0.51-5.43
		c0-4.67-2.72-6.71-7.21-6.71H14.23v-12.9h43.2c10.44,0,16.55,5.86,16.55,15.7C73.98,201.03,73.39,203.91,73.13,204.93z"/>
	<path class="st4" d="M37.66,131.01v29.79c6.88-0.59,9.85-4.07,9.85-9.85c0-5.01-1.78-8.23-5.86-8.57v-11.37
		c9.59,0.25,15.19,8.23,15.19,20.2c0,13.92-7.89,22.58-21.22,22.58c-13.83,0-22.07-8.66-22.07-22.83c0-11.71,6.71-19.95,20.46-19.95
		C34.01,131.01,37.66,131.01,37.66,131.01z M30.1,142.38c-4.75,0-7.21,3.23-7.21,8.57c0,5.43,2.38,8.49,7.89,9.51v-18.08H30.1z"/>
	<path class="st4" d="M35.28,126.09c-13.67,0-21.73-8.91-21.73-21.81c0-12.31,6.88-20.37,18.5-20.37v11.37
		c-5.43,0.08-8.66,3.31-8.66,8.57c0,6.03,4.16,9.34,11.8,9.34c7.38,0,11.8-3.4,11.8-9.08c0-5.52-3.14-8.83-8.49-8.91V83.82
		c12.05,0,18.33,8.57,18.33,20.97C56.84,117.34,48.86,126.09,35.28,126.09z"/>
	<path class="st4" d="M41.73,74.57H24.25v6.2H14.23v-5.01c0-1.95-1.1-2.63-3.65-2.89l-5.86-0.59V61.67h9.51V48.26h10.02v13.41h16.81
		c4.33,0,5.69-2.04,5.69-7.13c0-1.78-0.25-4.41-0.59-5.86h9.76c0.25,1.1,0.93,4.67,0.93,8.15C56.84,69.9,51.07,74.57,41.73,74.57z"
		/>
</g>
</svg>
