<?xml version="1.0" encoding="utf-8"?>
<!-- Generator: Adobe Illustrator 25.0.0, SVG Export Plug-In . SVG Version: 6.00 Build 0)  -->
<svg version="1.1" id="Layer_1" xmlns="http://www.w3.org/2000/svg" xmlns:xlink="http://www.w3.org/1999/xlink" x="0px" y="0px"
	 viewBox="0 0 76.58 599.75" style="enable-background:new 0 0 76.58 599.75;" xml:space="preserve">
<style type="text/css">
	.st0{fill:#FFFFFF;}
</style>
<g>
	<path class="st0" d="M1.42,599.63v-26.06c0-14.77,6.11-22.75,16.64-22.75c7.13,0,11.63,3.06,13.16,8.32h0.17
		c1.27-5.52,5.69-7.98,11.97-7.98h13.92v13.92h-13.5c-5.09,0-7.3,1.87-7.3,7.13v13.5h20.79v13.92H1.42z M28.07,572.97
		c0-5.86-2.63-8.83-7.81-8.83c-4.92,0-7.89,3.05-7.89,9.51v12.05h15.7V572.97z"/>
	<path class="st0" d="M38.77,502.19v29.79c6.88-0.59,9.85-4.07,9.85-9.85c0-5.01-1.78-8.23-5.86-8.57v-11.37
		c9.59,0.25,15.19,8.23,15.19,20.2c0,13.92-7.89,22.58-21.22,22.58c-13.83,0-22.07-8.66-22.07-22.83c0-11.71,6.71-19.95,20.46-19.95
		H38.77z M31.21,513.56c-4.75,0-7.21,3.23-7.21,8.57c0,5.43,2.38,8.49,7.89,9.51v-18.08H31.21z"/>
	<path class="st0" d="M36.39,497.27c-13.67,0-21.73-8.91-21.73-21.81c0-12.31,6.88-20.37,18.5-20.37v11.37
		c-5.43,0.08-8.66,3.31-8.66,8.57c0,6.03,4.16,9.34,11.8,9.34c7.38,0,11.8-3.4,11.8-9.08c0-5.52-3.14-8.83-8.49-8.91V455
		c12.05,0,18.33,8.57,18.33,20.97C57.95,488.53,49.97,497.27,36.39,497.27z"/>
	<path class="st0" d="M38.77,407.31v29.79c6.88-0.59,9.85-4.07,9.85-9.85c0-5.01-1.78-8.23-5.86-8.57v-11.37
		c9.59,0.25,15.19,8.23,15.19,20.2c0,13.92-7.89,22.58-21.22,22.58c-13.83,0-22.07-8.66-22.07-22.83c0-11.71,6.71-19.95,20.46-19.95
		H38.77z M31.21,418.68c-4.75,0-7.21,3.23-7.21,8.57c0,5.43,2.38,8.49,7.89,9.51v-18.08H31.21z"/>
	<path class="st0" d="M15.34,401.62v-12.9l11.12,0.51v-0.17c-7.98-2.12-11.8-7.04-11.8-16.55c0-10.1,5.52-16.64,16.38-16.64h26.23
		v12.9H33.93c-5.94,0-8.57,3.4-8.57,9.08c0,6.79,3.99,10.86,11.97,10.86h19.95v12.9H15.34z"/>
	<path class="st0" d="M42.84,346.29H25.36v6.2H15.34v-5.01c0-1.95-1.1-2.63-3.65-2.89L5.83,344v-10.61h9.51v-13.41h10.02v13.41
		h16.81c4.33,0,5.69-2.04,5.69-7.13c0-1.78-0.25-4.41-0.59-5.86h9.76c0.25,1.1,0.93,4.67,0.93,8.15
		C57.95,341.62,52.18,346.29,42.84,346.29z"/>
	<path class="st0" d="M1.42,294.43v-24.02c0-14.26,6.71-22.83,20.2-22.83c12.39,0,19.69,6.96,19.69,21.56v11.37h15.96v13.92H1.42z
		 M31.98,269.73c0-5.86-3.14-9.08-9.68-9.08c-6.37,0-9.93,3.56-9.93,10.19v9.68h19.61V269.73z"/>
	<path class="st0" d="M15.34,242.41v-12.9l11.97,0.51v-0.17c-7.98-1.78-12.65-6.28-12.65-14.51c0-8.57,5.52-13.58,16.38-13.58
		c2.38,0,6.11,0.25,8.32,0.42v11.71c-2.04-0.17-4.16-0.25-5.43-0.25c-6.11,0-8.57,2.46-8.57,6.54c0,5.52,4.5,9.34,13.83,9.34h18.08
		v12.9H15.34z"/>
	<path class="st0" d="M36.39,197c-13.67,0-21.73-9-21.73-22.83c0-13.84,8.06-22.83,21.73-22.83c13.58,0,21.56,9,21.56,22.83
		C57.95,188.01,49.97,197,36.39,197z M36.39,164.24c-7.47,0-11.88,3.65-11.88,9.93c0,6.28,4.41,9.93,11.88,9.93
		c7.38,0,11.71-3.65,11.71-9.93C48.1,167.89,43.77,164.24,36.39,164.24z"/>
	<path class="st0" d="M0.66,145.4v-12.99h10.27v12.99H0.66z M74.24,157.54h-9.68c0.34-1.87,0.51-3.4,0.51-5.43
		c0-4.67-2.72-6.71-7.21-6.71H15.34v-12.9h43.2c10.44,0,16.55,5.86,16.55,15.7C75.09,153.64,74.5,156.52,74.24,157.54z"/>
	<path class="st0" d="M38.77,83.62v29.79c6.88-0.59,9.85-4.07,9.85-9.85c0-5.01-1.78-8.23-5.86-8.57V83.62
		c9.59,0.25,15.19,8.23,15.19,20.2c0,13.92-7.89,22.58-21.22,22.58c-13.83,0-22.07-8.66-22.07-22.83c0-11.71,6.71-19.95,20.46-19.95
		H38.77z M31.21,94.99c-4.75,0-7.21,3.23-7.21,8.57c0,5.43,2.38,8.49,7.89,9.51V94.99H31.21z"/>
	<path class="st0" d="M36.39,78.7c-13.67,0-21.73-8.91-21.73-21.81c0-12.31,6.88-20.37,18.5-20.37v11.37
		c-5.43,0.08-8.66,3.31-8.66,8.57c0,6.03,4.16,9.34,11.8,9.34c7.38,0,11.8-3.4,11.8-9.08c0-5.52-3.14-8.83-8.49-8.91V36.43
		c12.05,0,18.33,8.57,18.33,20.97C57.95,69.95,49.97,78.7,36.39,78.7z"/>
	<path class="st0" d="M42.84,27.18H25.36v6.2H15.34v-5.01c0-1.95-1.1-2.63-3.65-2.89l-5.86-0.59V14.28h9.51V0.87h10.02v13.41h16.81
		c4.33,0,5.69-2.04,5.69-7.13c0-1.78-0.25-4.41-0.59-5.86h9.76c0.25,1.1,0.93,4.67,0.93,8.15C57.95,22.51,52.18,27.18,42.84,27.18z"
		/>
</g>
</svg>
