<?xml version="1.0" encoding="utf-8"?>
<!-- Generator: Adobe Illustrator 25.0.0, SVG Export Plug-In . SVG Version: 6.00 Build 0)  -->
<svg version="1.1" id="Layer_1" xmlns="http://www.w3.org/2000/svg" xmlns:xlink="http://www.w3.org/1999/xlink" x="0px" y="0px"
	 viewBox="0 0 370 137.74" style="enable-background:new 0 0 370 137.74;" xml:space="preserve">
<style type="text/css">
	.st0{enable-background:new    ;}
	.st1{fill:#FFFFFF;}
</style>
<g class="st0">
	<path class="st1" d="M50.61,109.38c0,13.78-8.04,22.8-23.78,22.8c-15.25,0-21.16-9.68-21.16-22.96c0-3.94,0.49-7.22,0.98-9.02
		l14.1,1.48c-0.33,1.64-0.66,4.1-0.66,6.4c0,6.89,1.97,9.02,5.9,9.02c3.12,0,5.58-2.3,5.58-6.23v-1.48c0-4.43-3.61-8.53-6.56-11.48
		l-8.86-8.86c-5.9-5.9-10.99-13.28-10.99-22.8v-2.13c0-14.27,7.87-23.12,22.63-23.12s21.81,6.89,21.81,23.45
		c0,3.28-0.16,5.74-0.66,8.36l-14.1-1.48c0.33-1.8,0.49-3.44,0.49-5.9c0-7.22-1.48-9.51-5.74-9.51c-3.44,0-5.58,2.3-5.58,6.72v1.64
		c0,3.12,1.48,5.9,4.43,8.69l9.84,9.35c6.89,6.56,12.3,15.25,12.3,24.27V109.38z"/>
</g>
<g class="st0">
	<path class="st1" d="M72.75,130.21H53.56V5.57h19.19V130.21z"/>
</g>
<g class="st0">
	<path class="st1" d="M111.29,130.21c-0.33-1.64-0.98-5.74-1.15-7.71h-0.82c-3.12,5.41-7.38,9.51-15.91,9.51
		c-11.64,0-17.22-7.05-17.22-21.65v-3.77c0-10.82,5.74-18.2,18.53-26.08l11.81-7.38v-9.84c0-4.26-1.48-7.22-5.74-7.22
		c-4.43,0-6.4,2.13-6.4,9.02c0,2.46,0.16,5.25,0.66,7.87L79.8,74.28c-0.49-2.79-0.82-6.4-0.82-11.15c0-13.78,7.38-22.14,23.29-22.14
		s23.45,9.35,23.45,25.75v51.66c0,4.1,0.16,8.86,0.98,11.81H111.29z M106.53,89.21c-9.35,5.08-11.32,8.36-11.32,12.96v8.36
		c0,4.59,1.64,6.72,5.25,6.72c4.59,0,6.07-3.28,6.07-8.53V89.21z"/>
</g>
<g class="st0">
	<path class="st1" d="M153.43,131.85c-15.58,0-24.44-8.53-24.44-24.44V65.92c0-16.07,9.18-24.93,24.44-24.93
		c13.94,0,21.81,7.38,21.81,23.12c0,5.58-0.33,9.02-0.82,11.97l-14.43-1.31c0.49-2.46,0.66-5.58,0.66-8.69
		c0-7.71-2.3-10.17-6.07-10.17c-4.59,0-6.23,2.3-6.23,8.86v44.44c0,5.58,1.97,7.71,6.07,7.71c4.26,0,6.23-3.28,6.23-10.82
		c0-2.95-0.33-5.74-0.82-7.87l14.27-1.48c0.66,3.12,1.15,6.56,1.15,11.81C175.25,125.61,166.55,131.85,153.43,131.85z"/>
</g>
<g class="st0">
	<path class="st1" d="M228.54,130.21h-20.34l-5.74-40.34l-4.92,7.38v32.96h-19.19V5.57h19.19v75.77h0.98l11.15-37.56h18.2
		l-11.48,29.19L228.54,130.21z"/>
</g>
<g class="st0">
	<path class="st1" d="M276.43,89.53h-27.39v20.34c0,5.25,2.13,7.05,6.07,7.05c4.59,0,6.07-2.79,6.07-9.51
		c0-2.95-0.16-5.41-0.49-8.04l14.6-1.31c0.33,2.95,0.66,6.4,0.66,11.32c0,14.76-7.54,22.8-22.3,22.8
		c-15.58,0-23.94-8.53-23.94-23.94V65.1c0-15.42,8.69-24.11,24.11-24.11c16.89,0,23.12,8.53,23.12,31
		C276.92,78.38,276.75,86.09,276.43,89.53z M254.45,56.08c-3.77,0-5.41,2.79-5.41,6.72v12.63h11.15c0.16-0.98,0.33-3.77,0.33-5.58
		C260.52,59.19,258.71,56.08,254.45,56.08z"/>
</g>
<g class="st0">
	<path class="st1" d="M316.45,63.13c-1.97-0.49-3.61-0.66-6.07-0.66c-8.2,0-11.32,5.9-11.32,17.06v50.68h-19.19V56.24
		c0-5.58-0.16-8.69-0.98-12.46h17.38c0.66,2.95,1.15,8.86,1.15,12.63h0.66c4.92-11.64,9.68-14.27,18.37-14.6V63.13z"/>
</g>
<g class="st0">
	<path class="st1" d="M364.82,109.38c0,13.78-8.04,22.8-23.78,22.8c-15.25,0-21.16-9.68-21.16-22.96c0-3.94,0.49-7.22,0.98-9.02
		l14.1,1.48c-0.33,1.64-0.66,4.1-0.66,6.4c0,6.89,1.97,9.02,5.9,9.02c3.12,0,5.58-2.3,5.58-6.23v-1.48c0-4.43-3.61-8.53-6.56-11.48
		l-8.86-8.86c-5.9-5.9-10.99-13.28-10.99-22.8v-2.13c0-14.27,7.87-23.12,22.63-23.12c14.76,0,21.81,6.89,21.81,23.45
		c0,3.28-0.16,5.74-0.66,8.36l-14.1-1.48c0.33-1.8,0.49-3.44,0.49-5.9c0-7.22-1.48-9.51-5.74-9.51c-3.44,0-5.58,2.3-5.58,6.72v1.64
		c0,3.12,1.48,5.9,4.43,8.69l9.84,9.35c6.89,6.56,12.3,15.25,12.3,24.27V109.38z"/>
</g>
</svg>
